<?xml version="1.0" encoding="utf-8"?>
<!-- Generator: Adobe Illustrator 23.0.5, SVG Export Plug-In . SVG Version: 6.00 Build 0)  -->
<svg version="1.1" id="Layer_1" xmlns="http://www.w3.org/2000/svg" xmlns:xlink="http://www.w3.org/1999/xlink" x="0px" y="0px"
	 viewBox="0 0 595.28 841.89" style="enable-background:new 0 0 595.28 841.89;" xml:space="preserve">
<style type="text/css">
	.st0{fill:#1E7F89;}
	.st1{fill:#A3DBE0;}
	.st2{fill:#5BC6CC;}
	.st3{fill:none;}
	.st4{fill:#278B9B;}
	.st5{fill:#42C1C4;}
	.st6{fill:#46BFAF;}
	.st7{fill:#7BCED6;}
	.st8{fill:#32A4A8;}
	.st9{fill:#216D7F;}
	.st10{fill:#F7941D;}
</style>
<path class="st0" d="M155,278.28c0,0-6.19,52.14,6.37,83.46c0.3-0.29,11.4-16.87,44.06-28.02l1.2-1.06
	c15.21-30.26,34.08-44.6,34.62-44.29C212.53,270.13,155,278.28,155,278.28z"/>
<path class="st0" d="M298.08,218.72c0,0-41.24,32.49-54.51,63.52c0.42,0.01,19.99-3.87,50.97,11.34l1.59,0.1
	c32.15-10.65,55.63-7.44,55.8-6.84C344.53,253.64,298.08,218.72,298.08,218.72z"/>
<path class="st0" d="M441.38,277.78c0,0-52.14-6.19-83.46,6.37c0.29,0.3,16.87,11.4,28.02,44.06l1.06,1.2
	c30.26,15.21,44.6,34.08,44.29,34.62C449.53,335.31,441.38,277.78,441.38,277.78z"/>
<path class="st0" d="M500.94,420.86c0,0-32.49-41.24-63.52-54.51c-0.01,0.42,3.87,19.99-11.34,50.97l-0.1,1.59
	c10.65,32.15,7.44,55.63,6.84,55.8C466.03,467.31,500.94,420.86,500.94,420.86z"/>
<path class="st0" d="M441.89,564.16c0,0,6.19-52.14-6.37-83.46c-0.3,0.29-11.4,16.87-44.06,28.02l-1.2,1.06
	c-15.21,30.26-34.08,44.6-34.62,44.29C384.35,572.31,441.89,564.16,441.89,564.16z"/>
<path class="st0" d="M298.8,623.72c0,0,41.24-32.49,54.51-63.52c-0.42-0.01-19.99,3.87-50.97-11.34l-1.59-0.1
	c-32.15,10.65-55.63,7.44-55.8,6.84C252.35,588.8,298.8,623.72,298.8,623.72z"/>
<path class="st0" d="M155.51,564.66c0,0,52.14,6.19,83.46-6.37c-0.29-0.3-16.87-11.4-28.02-44.06l-1.06-1.2
	c-30.26-15.21-44.6-34.08-44.29-34.62C147.35,507.13,155.51,564.66,155.51,564.66z"/>
<path class="st0" d="M95.94,421.58c0,0,32.49,41.24,63.52,54.51c0.01-0.42-3.87-19.99,11.34-50.97l0.1-1.59
	c-10.65-32.15-7.44-55.63-6.84-55.8C130.86,375.13,95.94,421.58,95.94,421.58z"/>
<path class="st1" d="M288.57,284.95c0,0-21.43-22.63-59.27-34.7c-20.77,33.86-19.94,64.12-19.94,64.12
	c33.64,6.37,33.32,8.27,33.32,8.27l18.64,12.13l0.61,1.62l0.3-1.02l0.88,0.57l-0.6-1.52l6.22-21.43
	C268.73,312.98,267.25,311.75,288.57,284.95z"/>
<path class="st1" d="M387.82,317.89c0,0,0.85-31.15-17.37-66.45c-38.63,9.25-59.44,31.24-59.44,31.24
	c19.28,28.3,17.72,29.41,17.72,29.41l4.61,21.76l-0.71,1.58l0.93-0.51l0.22,1.03l0.65-1.5l19.55-10.75
	C353.98,323.67,353.8,321.76,387.82,317.89z"/>
<path class="st1" d="M434.71,411.35c0,0,22.63-21.43,34.7-59.27c-33.86-20.77-64.12-19.94-64.12-19.94
	c-6.37,33.64-8.27,33.32-8.27,33.32L384.9,384.1l-1.62,0.61l1.02,0.3l-0.57,0.88l1.52-0.6l21.43,6.22
	C406.69,391.51,407.91,390.03,434.71,411.35z"/>
<path class="st1" d="M401.78,510.6c0,0,31.15,0.85,66.45-17.37c-9.25-38.63-31.24-59.44-31.24-59.44
	c-28.3,19.28-29.41,17.72-29.41,17.72l-21.76,4.61l-1.58-0.71l0.51,0.93l-1.03,0.22l1.5,0.65l10.75,19.55
	C395.99,476.75,397.91,476.58,401.78,510.6z"/>
<path class="st1" d="M308.31,557.49c0,0,21.43,22.63,59.27,34.7c20.77-33.86,19.94-64.12,19.94-64.12
	c-33.64-6.37-33.32-8.27-33.32-8.27l-18.64-12.13l-0.61-1.62l-0.3,1.02l-0.88-0.57l0.6,1.52l-6.22,21.43
	C328.15,529.47,329.63,530.69,308.31,557.49z"/>
<path class="st1" d="M209.07,524.55c0,0-0.85,31.15,17.37,66.45c38.63-9.25,59.44-31.24,59.44-31.24
	c-19.28-28.3-17.72-29.41-17.72-29.41l-4.61-21.76l0.71-1.58l-0.93,0.51l-0.22-1.03l-0.65,1.5l-19.55,10.75
	C242.91,518.77,243.09,520.68,209.07,524.55z"/>
<path class="st1" d="M162.18,431.09c0,0-22.63,21.43-34.7,59.27c33.86,20.77,64.12,19.94,64.12,19.94
	c6.37-33.64,8.27-33.32,8.27-33.32l12.13-18.64l1.62-0.61l-1.02-0.3l0.57-0.88l-1.52,0.6l-21.43-6.22
	C190.2,450.93,188.97,452.41,162.18,431.09z"/>
<path class="st1" d="M195.11,331.84c0,0-31.15-0.85-66.45,17.37c9.25,38.63,31.24,59.44,31.24,59.44
	c28.3-19.28,29.41-17.72,29.41-17.72l21.76-4.61l1.58,0.71l-0.51-0.93l1.03-0.22l-1.5-0.65l-10.75-19.55
	C200.89,365.69,198.98,365.87,195.11,331.84z"/>
<path class="st2" d="M298.37,262.23c-5.45,12.15-24.37,35.65-30.22,50.02c14.37,5.86,25.01,16.99,30.59,30.24
	c5.43-13.32,15.94-24.57,30.24-30.59C322.96,297.6,303.44,273.85,298.37,262.23z"/>
<path class="st2" d="M410.82,308.74c-12.44,4.74-42.44,7.98-56.74,14c6.02,14.3,5.67,29.69,0.25,43.01
	c13.26-5.58,28.64-6.1,43.01-0.25C403.19,351.14,406.18,320.54,410.82,308.74z"/>
<path class="st2" d="M457.44,421.15c-12.15-5.45-35.65-24.37-50.02-30.22c-5.86,14.37-16.99,25.01-30.24,30.59
	c13.32,5.43,24.57,15.94,30.59,30.24C422.07,445.73,445.82,426.22,457.44,421.15z"/>
<path class="st2" d="M410.92,533.6c-4.74-12.44-7.98-42.44-14-56.74c-14.3,6.02-29.69,5.67-43.01,0.25
	c5.58,13.26,6.1,28.64,0.25,43.01C368.52,525.97,399.12,528.96,410.92,533.6z"/>
<path class="st2" d="M298.52,580.22c5.45-12.15,24.37-35.65,30.22-50.02c-14.37-5.86-25.01-16.99-30.59-30.24
	c-5.43,13.32-15.94,24.57-30.24,30.59C273.93,544.84,293.45,568.59,298.52,580.22z"/>
<path class="st2" d="M186.07,533.7c12.44-4.74,42.44-7.98,56.74-14c-6.02-14.3-5.67-29.69-0.25-43.01
	c-13.26,5.58-28.64,6.1-43.01,0.25C193.69,491.3,190.7,521.9,186.07,533.7z"/>
<path class="st2" d="M139.45,421.29c12.15,5.45,35.65,24.37,50.02,30.22c5.86-14.37,16.99-25.01,30.24-30.59
	c-13.32-5.43-24.57-15.94-30.59-30.24C174.82,396.71,151.07,416.23,139.45,421.29z"/>
<path class="st2" d="M185.96,308.85c4.74,12.44,7.98,42.44,14,56.74c14.3-6.02,29.69-5.67,43.01-0.25
	c-5.58-13.26-6.1-28.64-0.25-43.01C228.36,316.47,197.77,313.48,185.96,308.85z"/>
<path class="st3" d="M336.08,390.54c0-2.73,0.32-5.39,0.9-7.94c-0.06-0.06-0.12-0.13-0.18-0.19c-11.63,2.74-24.37-0.42-33.44-9.49
	c-1.93-1.93-3.59-4.03-4.98-6.25c-0.09,0-0.18-0.01-0.27-0.01c-6.29,10.16-17.53,16.93-30.36,16.93c-2.73,0-5.39-0.32-7.94-0.9
	c-0.06,0.06-0.13,0.12-0.19,0.18c2.74,11.63-0.42,24.37-9.49,33.44c-1.93,1.93-4.03,3.59-6.25,4.98c0,0.09-0.01,0.18-0.01,0.27
	c10.16,6.29,16.93,17.53,16.93,30.36c0,2.73-0.32,5.39-0.9,7.94c0.06,0.06,0.12,0.13,0.18,0.19c11.63-2.74,24.37,0.42,33.44,9.49
	c1.93,1.93,3.59,4.03,4.98,6.25c0.09,0,0.18,0.01,0.27,0.01c6.29-10.16,17.53-16.93,30.36-16.93c2.73,0,5.39,0.32,7.94,0.9
	c0.06-0.06,0.13-0.12,0.19-0.18c-2.74-11.63,0.42-24.37,9.49-33.44c1.93-1.93,4.03-3.59,6.25-4.98c0-0.09,0.01-0.18,0.01-0.27
	C342.86,414.6,336.08,403.36,336.08,390.54z"/>
<path class="st4" d="M233.09,356.35c-0.66-2.71-1.01-5.54-1.01-8.45c0-9.87,4.01-18.81,10.49-25.27
	c-11.56-2.63-24.17,0.55-33.17,9.55c-9.07,9.07-12.23,21.81-9.49,33.44C208.96,356.73,221.57,353.64,233.09,356.35z"/>
<path class="st5" d="M259.57,382.62c0.02,0.08,0.03,0.16,0.05,0.24c0.06-0.06,0.13-0.12,0.19-0.18
	C259.73,382.66,259.65,382.64,259.57,382.62z"/>
<path class="st4" d="M298.11,329.14c1.45-2.38,3.2-4.63,5.26-6.69c6.98-6.98,16.14-10.46,25.29-10.45
	c-6.31-10.03-17.48-16.7-30.21-16.7c-12.83,0-24.07,6.77-30.36,16.93C280.77,312.35,291.87,319.08,298.11,329.14z"/>
<path class="st5" d="M298.25,366.44c-0.04,0.07-0.09,0.14-0.13,0.21c0.09,0,0.18,0.01,0.27,0.01
	C298.34,366.58,298.29,366.51,298.25,366.44z"/>
<path class="st4" d="M363.32,355.87c2.71-0.66,5.54-1.01,8.45-1.01c9.87,0,18.81,4.01,25.27,10.49c2.63-11.56-0.55-24.17-9.55-33.17
	c-9.07-9.07-21.81-12.23-33.44-9.49C362.93,331.74,366.02,344.35,363.32,355.87z"/>
<path class="st5" d="M337.04,382.35c-0.08,0.02-0.16,0.03-0.24,0.05c0.06,0.06,0.12,0.13,0.18,0.19
	C337,382.51,337.02,382.43,337.04,382.35z"/>
<path class="st4" d="M407.43,390.87c-0.12,12.68-6.85,23.78-16.91,30.02c2.38,1.45,4.63,3.2,6.69,5.26
	c6.98,6.98,10.46,16.14,10.45,25.29c10.03-6.31,16.7-17.48,16.7-30.21C424.36,408.39,417.59,397.15,407.43,390.87z"/>
<path class="st5" d="M353.01,421.16c0.07-0.04,0.14-0.09,0.21-0.13c-0.07-0.04-0.14-0.09-0.21-0.13
	C353.01,420.98,353.01,421.07,353.01,421.16z"/>
<path class="st5" d="M337.32,459.82c-0.02-0.08-0.03-0.16-0.05-0.24c-0.06,0.06-0.13,0.12-0.19,0.18
	C337.15,459.78,337.23,459.8,337.32,459.82z"/>
<path class="st4" d="M363.79,486.09c0.66,2.71,1.01,5.54,1.01,8.45c0,9.87-4.01,18.81-10.49,25.27c11.56,2.63,24.17-0.55,33.17-9.55
	c9.07-9.07,12.23-21.81,9.49-33.44C387.92,485.71,375.32,488.8,363.79,486.09z"/>
<path class="st4" d="M298.78,513.3c-1.45,2.38-3.2,4.63-5.26,6.69c-6.98,6.98-16.14,10.46-25.29,10.45
	c6.31,10.03,17.48,16.7,30.21,16.7c12.83,0,24.07-6.77,30.36-16.93C316.11,530.1,305.01,523.37,298.78,513.3z"/>
<path class="st5" d="M298.64,476c0.04-0.07,0.09-0.14,0.13-0.21c-0.09,0-0.18-0.01-0.27-0.01
	C298.55,475.86,298.59,475.93,298.64,476z"/>
<path class="st4" d="M233.57,486.57c-2.71,0.66-5.54,1.01-8.45,1.01c-9.87,0-18.81-4.01-25.27-10.49
	c-2.63,11.56,0.55,24.17,9.55,33.17c9.07,9.07,21.81,12.23,33.44,9.49C233.95,510.7,230.86,498.1,233.57,486.57z"/>
<path class="st5" d="M259.85,460.09c0.08-0.02,0.16-0.03,0.24-0.05c-0.06-0.06-0.12-0.13-0.18-0.19
	C259.88,459.93,259.87,460.01,259.85,460.09z"/>
<path class="st5" d="M243.66,421.42c0.07,0.04,0.14,0.09,0.21,0.13c0-0.09,0.01-0.18,0.01-0.27
	C243.81,421.33,243.74,421.37,243.66,421.42z"/>
<path class="st4" d="M206.36,421.56c-2.38-1.45-4.63-3.2-6.69-5.26c-6.98-6.98-10.46-16.14-10.45-25.29
	c-10.03,6.32-16.7,17.48-16.7,30.21c0,12.83,6.77,24.07,16.93,30.36C189.57,438.89,196.3,427.79,206.36,421.56z"/>
<path class="st5" d="M298.11,366.65c-11.5-0.1-21.7-5.64-28.15-14.18c1.49,10.7-1.88,21.94-10.1,30.17
	c-0.01,0.01-0.03,0.03-0.05,0.04c2.56,0.58,5.21,0.9,7.94,0.9C280.59,383.58,291.83,376.81,298.11,366.65z"/>
<path class="st6" d="M263.11,335.93c-0.22-1.62-0.35-3.27-0.35-4.95c0-6.88,1.95-13.3,5.32-18.75c-0.11,0-0.22-0.01-0.33-0.01
	c-9.83,0-18.73,3.98-25.18,10.41c6.33,1.44,12.35,4.62,17.29,9.55C261.05,333.37,262.13,334.62,263.11,335.93z"/>
<path class="st5" d="M233.09,356.35c6.24,1.47,12.17,4.63,17.04,9.5c4.8,4.8,7.95,10.63,9.44,16.78c0.08,0.02,0.16,0.04,0.25,0.06
	c0.01-0.01,0.03-0.03,0.05-0.04c8.23-8.23,11.59-19.47,10.1-30.17c-3.58-4.73-6-10.39-6.85-16.54c-0.99-1.3-2.06-2.56-3.25-3.75
	c-4.93-4.93-10.95-8.11-17.29-9.55c-6.48,6.46-10.49,15.4-10.49,25.27C232.08,350.81,232.44,353.64,233.09,356.35z"/>
<path class="st7" d="M233.09,356.35c6.24,1.47,12.17,4.63,17.04,9.5c4.8,4.8,7.95,10.63,9.44,16.78c0.08,0.02,0.16,0.04,0.25,0.06
	c0.01-0.01,0.03-0.03,0.05-0.04c8.23-8.23,11.59-19.47,10.1-30.17c-3.58-4.73-6-10.39-6.85-16.54c-0.99-1.3-2.06-2.56-3.25-3.75
	c-4.93-4.93-10.95-8.11-17.29-9.55c-6.48,6.46-10.49,15.4-10.49,25.27C232.08,350.81,232.44,353.64,233.09,356.35z"/>
<path class="st5" d="M263.11,335.93c3.75,4.96,6.03,10.66,6.85,16.54c6.45,8.54,16.65,14.08,28.15,14.18
	c0.04-0.07,0.09-0.14,0.13-0.21c-7.05-11.39-7.1-25.87-0.14-37.3c-6.24-10.07-17.34-16.8-30.02-16.91
	c-3.37,5.45-5.32,11.87-5.32,18.75C262.76,332.66,262.89,334.31,263.11,335.93z"/>
<path class="st7" d="M263.11,335.93c3.75,4.96,6.03,10.66,6.85,16.54c6.45,8.54,16.65,14.08,28.15,14.18
	c0.04-0.07,0.09-0.14,0.13-0.21c-7.05-11.39-7.1-25.87-0.14-37.3c-6.24-10.07-17.34-16.8-30.02-16.91
	c-3.37,5.45-5.32,11.87-5.32,18.75C262.76,332.66,262.89,334.31,263.11,335.93z"/>
<path class="st5" d="M269.96,352.47c-0.82-5.88-3.1-11.58-6.85-16.54C263.97,342.08,266.39,347.74,269.96,352.47z"/>
<path class="st5" d="M269.96,352.47c-0.82-5.88-3.1-11.58-6.85-16.54C263.97,342.08,266.39,347.74,269.96,352.47z"/>
<path class="st5" d="M269.96,352.47c-0.82-5.88-3.1-11.58-6.85-16.54C263.97,342.08,266.39,347.74,269.96,352.47z"/>
<path class="st5" d="M336.8,382.4c-8.06-8.21-11.35-19.33-9.88-29.93c-6.51,8.62-16.84,14.19-28.48,14.19c-0.02,0-0.04,0-0.06,0
	c1.4,2.22,3.05,4.32,4.98,6.25C312.43,381.98,325.17,385.14,336.8,382.4z"/>
<path class="st6" d="M333.77,335.93c0.99-1.3,2.06-2.56,3.25-3.75c4.86-4.86,10.78-8.02,17.02-9.49c-0.08-0.08-0.15-0.16-0.23-0.24
	c-6.95-6.95-16.06-10.43-25.17-10.45c3.46,5.5,5.47,12,5.47,18.98C334.12,332.66,334,334.31,333.77,335.93z"/>
<path class="st5" d="M298.11,329.14c3.38,5.45,5.33,11.88,5.33,18.76c0,6.79-1.9,13.14-5.19,18.54c0.04,0.07,0.09,0.14,0.13,0.21
	c0.02,0,0.04,0,0.06,0c11.63,0,21.96-5.57,28.48-14.19c0.82-5.88,3.1-11.58,6.85-16.54c0.22-1.62,0.35-3.27,0.35-4.95
	c0-6.98-2.01-13.48-5.47-18.98c-9.15-0.02-18.31,3.47-25.29,10.45C301.3,324.51,299.56,326.76,298.11,329.14z"/>
<path class="st7" d="M298.11,329.14c3.38,5.45,5.33,11.88,5.33,18.76c0,6.79-1.9,13.14-5.19,18.54c0.04,0.07,0.09,0.14,0.13,0.21
	c0.02,0,0.04,0,0.06,0c11.63,0,21.96-5.57,28.48-14.19c0.82-5.88,3.1-11.58,6.85-16.54c0.22-1.62,0.35-3.27,0.35-4.95
	c0-6.98-2.01-13.48-5.47-18.98c-9.15-0.02-18.31,3.47-25.29,10.45C301.3,324.51,299.56,326.76,298.11,329.14z"/>
<path class="st5" d="M333.77,335.93c-0.85,6.15-3.27,11.81-6.85,16.54c-1.47,10.6,1.82,21.73,9.88,29.93
	c0.08-0.02,0.16-0.03,0.24-0.05c3.06-13.04,13.27-23.32,26.28-26.47c2.71-11.53-0.38-24.13-9.27-33.18
	c-6.24,1.47-12.16,4.63-17.02,9.49C335.84,333.37,334.76,334.62,333.77,335.93z"/>
<path class="st7" d="M333.77,335.93c-0.85,6.15-3.27,11.81-6.85,16.54c-1.47,10.6,1.82,21.73,9.88,29.93
	c0.08-0.02,0.16-0.03,0.24-0.05c3.06-13.04,13.27-23.32,26.28-26.47c2.71-11.53-0.38-24.13-9.27-33.18
	c-6.24,1.47-12.16,4.63-17.02,9.49C335.84,333.37,334.76,334.62,333.77,335.93z"/>
<path class="st5" d="M326.92,352.47c3.58-4.73,6-10.39,6.85-16.54C330.02,340.88,327.74,346.59,326.92,352.47z"/>
<path class="st5" d="M326.92,352.47c3.58-4.73,6-10.39,6.85-16.54C330.02,340.88,327.74,346.59,326.92,352.47z"/>
<path class="st5" d="M326.92,352.47c3.58-4.73,6-10.39,6.85-16.54C330.02,340.88,327.74,346.59,326.92,352.47z"/>
<path class="st5" d="M298.11,329.14c-6.96,11.43-6.91,25.91,0.14,37.3c3.29-5.4,5.19-11.75,5.19-18.54
	C303.44,341.02,301.48,334.59,298.11,329.14z"/>
<path class="st5" d="M298.11,329.14c-6.96,11.43-6.91,25.91,0.14,37.3c3.29-5.4,5.19-11.75,5.19-18.54
	C303.44,341.02,301.48,334.59,298.11,329.14z"/>
<path class="st5" d="M298.11,329.14c-6.96,11.43-6.91,25.91,0.14,37.3c3.29-5.4,5.19-11.75,5.19-18.54
	C303.44,341.02,301.48,334.59,298.11,329.14z"/>
<path class="st5" d="M353.01,420.89c0.1-11.5,5.64-21.7,14.18-28.15c-10.7,1.49-21.94-1.88-30.17-10.1
	c-0.01-0.01-0.03-0.03-0.04-0.05c-0.58,2.56-0.9,5.21-0.9,7.94C336.08,403.36,342.86,414.6,353.01,420.89z"/>
<path class="st6" d="M383.74,385.89c1.62-0.22,3.27-0.35,4.95-0.35c6.88,0,13.3,1.95,18.75,5.32c0-0.11,0.01-0.22,0.01-0.33
	c0-9.83-3.98-18.73-10.41-25.18c-1.44,6.33-4.62,12.35-9.55,17.29C386.29,383.83,385.04,384.91,383.74,385.89z"/>
<path class="st5" d="M363.32,355.87c-1.47,6.24-4.63,12.17-9.5,17.04c-4.8,4.8-10.63,7.95-16.78,9.44
	c-0.02,0.08-0.04,0.16-0.06,0.25c0.01,0.01,0.03,0.03,0.04,0.05c8.23,8.23,19.47,11.59,30.17,10.1c4.73-3.58,10.39-6,16.54-6.85
	c1.3-0.99,2.56-2.06,3.75-3.25c4.93-4.93,8.11-10.95,9.55-17.29c-6.46-6.48-15.4-10.49-25.27-10.49
	C368.85,354.86,366.02,355.21,363.32,355.87z"/>
<path class="st7" d="M363.32,355.87c-1.47,6.24-4.63,12.17-9.5,17.04c-4.8,4.8-10.63,7.95-16.78,9.44
	c-0.02,0.08-0.04,0.16-0.06,0.25c0.01,0.01,0.03,0.03,0.04,0.05c8.23,8.23,19.47,11.59,30.17,10.1c4.73-3.58,10.39-6,16.54-6.85
	c1.3-0.99,2.56-2.06,3.75-3.25c4.93-4.93,8.11-10.95,9.55-17.29c-6.46-6.48-15.4-10.49-25.27-10.49
	C368.85,354.86,366.02,355.21,363.32,355.87z"/>
<path class="st5" d="M383.74,385.89c-4.96,3.75-10.66,6.03-16.54,6.85c-8.54,6.45-14.08,16.65-14.18,28.15
	c0.07,0.04,0.14,0.09,0.21,0.13c11.39-7.05,25.87-7.1,37.3-0.14c10.07-6.24,16.8-17.34,16.91-30.02
	c-5.45-3.37-11.87-5.32-18.75-5.32C387,385.54,385.35,385.67,383.74,385.89z"/>
<path class="st7" d="M383.74,385.89c-4.96,3.75-10.66,6.03-16.54,6.85c-8.54,6.45-14.08,16.65-14.18,28.15
	c0.07,0.04,0.14,0.09,0.21,0.13c11.39-7.05,25.87-7.1,37.3-0.14c10.07-6.24,16.8-17.34,16.91-30.02
	c-5.45-3.37-11.87-5.32-18.75-5.32C387,385.54,385.35,385.67,383.74,385.89z"/>
<path class="st5" d="M367.19,392.74c5.88-0.82,11.58-3.1,16.54-6.85C377.58,386.75,371.93,389.17,367.19,392.74z"/>
<path class="st5" d="M367.19,392.74c5.88-0.82,11.58-3.1,16.54-6.85C377.58,386.75,371.93,389.17,367.19,392.74z"/>
<path class="st5" d="M367.19,392.74c5.88-0.82,11.58-3.1,16.54-6.85C377.58,386.75,371.93,389.17,367.19,392.74z"/>
<path class="st5" d="M363.32,355.87c-13,3.16-23.21,13.44-26.28,26.47c6.15-1.49,11.98-4.64,16.78-9.44
	C358.69,368.04,361.85,362.12,363.32,355.87z"/>
<path class="st5" d="M363.32,355.87c-13,3.16-23.21,13.44-26.28,26.47c6.15-1.49,11.98-4.64,16.78-9.44
	C358.69,368.04,361.85,362.12,363.32,355.87z"/>
<path class="st5" d="M363.32,355.87c-13,3.16-23.21,13.44-26.28,26.47c6.15-1.49,11.98-4.64,16.78-9.44
	C358.69,368.04,361.85,362.12,363.32,355.87z"/>
<path class="st6" d="M383.74,456.55c1.3,0.99,2.56,2.06,3.75,3.25c4.86,4.86,8.02,10.78,9.49,17.02c0.08-0.08,0.16-0.15,0.24-0.23
	c6.95-6.95,10.43-16.06,10.45-25.17c-5.5,3.46-12,5.47-18.98,5.47C387,456.9,385.35,456.78,383.74,456.55z"/>
<path class="st5" d="M337.26,459.58c8.21-8.06,19.33-11.35,29.93-9.88c-8.62-6.51-14.19-16.84-14.19-28.48c0-0.02,0-0.04,0-0.06
	c-2.22,1.4-4.32,3.05-6.25,4.98C337.69,435.21,334.53,447.95,337.26,459.58z"/>
<path class="st5" d="M390.52,420.88c-5.45,3.38-11.88,5.33-18.76,5.33c-6.79,0-13.14-1.9-18.54-5.19c-0.07,0.04-0.14,0.09-0.21,0.13
	c0,0.02,0,0.04,0,0.06c0,11.63,5.57,21.96,14.19,28.48c5.88,0.82,11.58,3.1,16.54,6.85c1.62,0.22,3.27,0.35,4.95,0.35
	c6.98,0,13.48-2.01,18.98-5.47c0.02-9.15-3.47-18.31-10.45-25.29C395.15,424.08,392.9,422.33,390.52,420.88z"/>
<path class="st7" d="M390.52,420.88c-5.45,3.38-11.88,5.33-18.76,5.33c-6.79,0-13.14-1.9-18.54-5.19c-0.07,0.04-0.14,0.09-0.21,0.13
	c0,0.02,0,0.04,0,0.06c0,11.63,5.57,21.96,14.19,28.48c5.88,0.82,11.58,3.1,16.54,6.85c1.62,0.22,3.27,0.35,4.95,0.35
	c6.98,0,13.48-2.01,18.98-5.47c0.02-9.15-3.47-18.31-10.45-25.29C395.15,424.08,392.9,422.33,390.52,420.88z"/>
<path class="st5" d="M383.74,456.55c-6.15-0.85-11.81-3.27-16.54-6.85c-10.6-1.47-21.73,1.82-29.93,9.88
	c0.02,0.08,0.03,0.16,0.05,0.24c13.04,3.06,23.32,13.27,26.47,26.28c11.53,2.71,24.13-0.38,33.18-9.27
	c-1.47-6.24-4.63-12.16-9.49-17.02C386.29,458.61,385.04,457.54,383.74,456.55z"/>
<path class="st7" d="M383.74,456.55c-6.15-0.85-11.81-3.27-16.54-6.85c-10.6-1.47-21.73,1.82-29.93,9.88
	c0.02,0.08,0.03,0.16,0.05,0.24c13.04,3.06,23.32,13.27,26.47,26.28c11.53,2.71,24.13-0.38,33.18-9.27
	c-1.47-6.24-4.63-12.16-9.49-17.02C386.29,458.61,385.04,457.54,383.74,456.55z"/>
<path class="st5" d="M367.19,449.7c4.73,3.58,10.39,6,16.54,6.85C378.78,452.8,373.07,450.52,367.19,449.7z"/>
<path class="st5" d="M367.19,449.7c4.73,3.58,10.39,6,16.54,6.85C378.78,452.8,373.07,450.52,367.19,449.7z"/>
<path class="st5" d="M367.19,449.7c4.73,3.58,10.39,6,16.54,6.85C378.78,452.8,373.07,450.52,367.19,449.7z"/>
<path class="st5" d="M353.22,421.03c5.4,3.29,11.75,5.19,18.54,5.19c6.88,0,13.31-1.95,18.76-5.33
	C379.1,413.92,364.61,413.97,353.22,421.03z"/>
<path class="st5" d="M353.22,421.03c5.4,3.29,11.75,5.19,18.54,5.19c6.88,0,13.31-1.95,18.76-5.33
	C379.1,413.92,364.61,413.97,353.22,421.03z"/>
<path class="st5" d="M353.22,421.03c5.4,3.29,11.75,5.19,18.54,5.19c6.88,0,13.31-1.95,18.76-5.33
	C379.1,413.92,364.61,413.97,353.22,421.03z"/>
<path class="st6" d="M333.77,506.51c0.22,1.62,0.35,3.27,0.35,4.95c0,6.88-1.95,13.3-5.32,18.75c0.11,0,0.22,0.01,0.33,0.01
	c9.83,0,18.73-3.98,25.18-10.41c-6.33-1.44-12.35-4.62-17.29-9.55C335.84,509.07,334.76,507.82,333.77,506.51z"/>
<path class="st5" d="M298.77,475.79c11.5,0.1,21.7,5.64,28.15,14.18c-1.49-10.7,1.88-21.94,10.1-30.17
	c0.01-0.01,0.03-0.03,0.05-0.04c-2.56-0.58-5.21-0.9-7.94-0.9C316.3,458.86,305.06,465.63,298.77,475.79z"/>
<path class="st5" d="M363.79,486.09c-6.24-1.47-12.17-4.63-17.04-9.5c-4.8-4.8-7.95-10.63-9.44-16.78
	c-0.08-0.02-0.16-0.04-0.25-0.06c-0.01,0.01-0.03,0.03-0.05,0.04c-8.23,8.23-11.59,19.47-10.1,30.17c3.58,4.73,6,10.39,6.85,16.54
	c0.99,1.3,2.06,2.56,3.25,3.75c4.93,4.93,10.95,8.11,17.29,9.55c6.48-6.46,10.49-15.4,10.49-25.27
	C364.81,491.63,364.45,488.8,363.79,486.09z"/>
<path class="st7" d="M363.79,486.09c-6.24-1.47-12.17-4.63-17.04-9.5c-4.8-4.8-7.95-10.63-9.44-16.78
	c-0.08-0.02-0.16-0.04-0.25-0.06c-0.01,0.01-0.03,0.03-0.05,0.04c-8.23,8.23-11.59,19.47-10.1,30.17c3.58,4.73,6,10.39,6.85,16.54
	c0.99,1.3,2.06,2.56,3.25,3.75c4.93,4.93,10.95,8.11,17.29,9.55c6.48-6.46,10.49-15.4,10.49-25.27
	C364.81,491.63,364.45,488.8,363.79,486.09z"/>
<path class="st5" d="M333.77,506.51c-3.75-4.96-6.03-10.66-6.85-16.54c-6.45-8.54-16.65-14.08-28.15-14.18
	c-0.04,0.07-0.09,0.14-0.13,0.21c7.05,11.39,7.1,25.87,0.14,37.3c6.24,10.07,17.34,16.8,30.02,16.91
	c3.37-5.45,5.32-11.87,5.32-18.75C334.12,509.78,334,508.13,333.77,506.51z"/>
<path class="st7" d="M333.77,506.51c-3.75-4.96-6.03-10.66-6.85-16.54c-6.45-8.54-16.65-14.08-28.15-14.18
	c-0.04,0.07-0.09,0.14-0.13,0.21c7.05,11.39,7.1,25.87,0.14,37.3c6.24,10.07,17.34,16.8,30.02,16.91
	c3.37-5.45,5.32-11.87,5.32-18.75C334.12,509.78,334,508.13,333.77,506.51z"/>
<path class="st5" d="M326.92,489.97c0.82,5.88,3.1,11.58,6.85,16.54C332.92,500.36,330.5,494.71,326.92,489.97z"/>
<path class="st5" d="M326.92,489.97c0.82,5.88,3.1,11.58,6.85,16.54C332.92,500.36,330.5,494.71,326.92,489.97z"/>
<path class="st5" d="M326.92,489.97c0.82,5.88,3.1,11.58,6.85,16.54C332.92,500.36,330.5,494.71,326.92,489.97z"/>
<path class="st5" d="M363.79,486.09c-3.16-13-13.44-23.21-26.47-26.28c1.49,6.15,4.64,11.98,9.44,16.78
	C351.62,481.47,357.55,484.63,363.79,486.09z"/>
<path class="st5" d="M363.79,486.09c-3.16-13-13.44-23.21-26.47-26.28c1.49,6.15,4.64,11.98,9.44,16.78
	C351.62,481.47,357.55,484.63,363.79,486.09z"/>
<path class="st5" d="M363.79,486.09c-3.16-13-13.44-23.21-26.47-26.28c1.49,6.15,4.64,11.98,9.44,16.78
	C351.62,481.47,357.55,484.63,363.79,486.09z"/>
<path class="st5" d="M260.09,460.04c8.06,8.21,11.35,19.33,9.88,29.93c6.51-8.62,16.84-14.19,28.48-14.19c0.02,0,0.04,0,0.06,0
	c-1.4-2.22-3.05-4.32-4.98-6.25C284.45,460.46,271.72,457.3,260.09,460.04z"/>
<path class="st6" d="M263.11,506.51c-0.99,1.3-2.06,2.56-3.25,3.75c-4.86,4.86-10.78,8.02-17.02,9.49c0.08,0.08,0.15,0.16,0.23,0.24
	c6.95,6.95,16.06,10.43,25.17,10.45c-3.46-5.5-5.47-12-5.47-18.98C262.76,509.78,262.89,508.13,263.11,506.51z"/>
<path class="st5" d="M298.78,513.3c-3.38-5.45-5.33-11.88-5.33-18.76c0-6.79,1.9-13.14,5.19-18.54c-0.04-0.07-0.09-0.14-0.13-0.21
	c-0.02,0-0.04,0-0.06,0c-11.63,0-21.96,5.57-28.48,14.19c-0.82,5.88-3.1,11.58-6.85,16.54c-0.22,1.62-0.35,3.27-0.35,4.95
	c0,6.98,2.01,13.48,5.47,18.98c9.15,0.02,18.31-3.47,25.29-10.45C295.58,517.93,297.33,515.68,298.78,513.3z"/>
<path class="st7" d="M298.78,513.3c-3.38-5.45-5.33-11.88-5.33-18.76c0-6.79,1.9-13.14,5.19-18.54c-0.04-0.07-0.09-0.14-0.13-0.21
	c-0.02,0-0.04,0-0.06,0c-11.63,0-21.96,5.57-28.48,14.19c-0.82,5.88-3.1,11.58-6.85,16.54c-0.22,1.62-0.35,3.27-0.35,4.95
	c0,6.98,2.01,13.48,5.47,18.98c9.15,0.02,18.31-3.47,25.29-10.45C295.58,517.93,297.33,515.68,298.78,513.3z"/>
<path class="st5" d="M263.11,506.51c0.85-6.15,3.27-11.81,6.85-16.54c1.47-10.6-1.82-21.73-9.88-29.93
	c-0.08,0.02-0.16,0.03-0.24,0.05c-3.06,13.04-13.27,23.32-26.28,26.47c-2.71,11.53,0.38,24.13,9.27,33.18
	c6.24-1.47,12.16-4.63,17.02-9.49C261.05,509.07,262.13,507.82,263.11,506.51z"/>
<path class="st7" d="M263.11,506.51c0.85-6.15,3.27-11.81,6.85-16.54c1.47-10.6-1.82-21.73-9.88-29.93
	c-0.08,0.02-0.16,0.03-0.24,0.05c-3.06,13.04-13.27,23.32-26.28,26.47c-2.71,11.53,0.38,24.13,9.27,33.18
	c6.24-1.47,12.16-4.63,17.02-9.49C261.05,509.07,262.13,507.82,263.11,506.51z"/>
<path class="st5" d="M269.96,489.97c-3.58,4.73-6,10.39-6.85,16.54C266.86,501.56,269.15,495.85,269.96,489.97z"/>
<path class="st5" d="M269.96,489.97c-3.58,4.73-6,10.39-6.85,16.54C266.86,501.56,269.15,495.85,269.96,489.97z"/>
<path class="st5" d="M269.96,489.97c-3.58,4.73-6,10.39-6.85,16.54C266.86,501.56,269.15,495.85,269.96,489.97z"/>
<path class="st5" d="M298.78,513.3c6.96-11.43,6.91-25.91-0.14-37.3c-3.29,5.4-5.19,11.75-5.19,18.54
	C293.45,501.42,295.4,507.85,298.78,513.3z"/>
<path class="st5" d="M298.78,513.3c6.96-11.43,6.91-25.91-0.14-37.3c-3.29,5.4-5.19,11.75-5.19,18.54
	C293.45,501.42,295.4,507.85,298.78,513.3z"/>
<path class="st5" d="M298.78,513.3c6.96-11.43,6.91-25.91-0.14-37.3c-3.29,5.4-5.19,11.75-5.19,18.54
	C293.45,501.42,295.4,507.85,298.78,513.3z"/>
<path class="st5" d="M243.87,421.55c-0.1,11.5-5.64,21.7-14.18,28.15c10.7-1.49,21.94,1.88,30.17,10.1
	c0.01,0.01,0.03,0.03,0.04,0.05c0.58-2.56,0.9-5.21,0.9-7.94C260.8,439.08,254.03,427.84,243.87,421.55z"/>
<path class="st6" d="M213.15,456.55c-1.62,0.22-3.27,0.35-4.95,0.35c-6.88,0-13.3-1.95-18.75-5.32c0,0.11-0.01,0.22-0.01,0.33
	c0,9.83,3.98,18.73,10.41,25.18c1.44-6.33,4.62-12.35,9.55-17.29C210.59,458.61,211.85,457.54,213.15,456.55z"/>
<path class="st5" d="M233.57,486.57c1.47-6.24,4.63-12.17,9.5-17.04c4.8-4.8,10.63-7.95,16.78-9.44c0.02-0.08,0.04-0.16,0.06-0.25
	c-0.01-0.01-0.03-0.03-0.04-0.05c-8.23-8.23-19.47-11.59-30.17-10.1c-4.73,3.58-10.39,6-16.54,6.85c-1.3,0.99-2.56,2.06-3.75,3.25
	c-4.93,4.93-8.11,10.95-9.55,17.29c6.46,6.48,15.4,10.49,25.27,10.49C228.03,487.58,230.86,487.23,233.57,486.57z"/>
<path class="st7" d="M233.57,486.57c1.47-6.24,4.63-12.17,9.5-17.04c4.8-4.8,10.63-7.95,16.78-9.44c0.02-0.08,0.04-0.16,0.06-0.25
	c-0.01-0.01-0.03-0.03-0.04-0.05c-8.23-8.23-19.47-11.59-30.17-10.1c-4.73,3.58-10.39,6-16.54,6.85c-1.3,0.99-2.56,2.06-3.75,3.25
	c-4.93,4.93-8.11,10.95-9.55,17.29c6.46,6.48,15.4,10.49,25.27,10.49C228.03,487.58,230.86,487.23,233.57,486.57z"/>
<path class="st5" d="M213.15,456.55c4.96-3.75,10.66-6.03,16.54-6.85c8.54-6.45,14.08-16.65,14.18-28.15
	c-0.07-0.04-0.14-0.09-0.21-0.13c-11.39,7.05-25.87,7.1-37.3,0.14c-10.07,6.24-16.8,17.34-16.91,30.02
	c5.45,3.37,11.87,5.32,18.75,5.32C209.88,456.9,211.53,456.78,213.15,456.55z"/>
<path class="st7" d="M213.15,456.55c4.96-3.75,10.66-6.03,16.54-6.85c8.54-6.45,14.08-16.65,14.18-28.15
	c-0.07-0.04-0.14-0.09-0.21-0.13c-11.39,7.05-25.87,7.1-37.3,0.14c-10.07,6.24-16.8,17.34-16.91,30.02
	c5.45,3.37,11.87,5.32,18.75,5.32C209.88,456.9,211.53,456.78,213.15,456.55z"/>
<path class="st5" d="M229.69,449.7c-5.88,0.82-11.58,3.1-16.54,6.85C219.31,455.7,224.96,453.28,229.69,449.7z"/>
<path class="st5" d="M229.69,449.7c-5.88,0.82-11.58,3.1-16.54,6.85C219.31,455.7,224.96,453.28,229.69,449.7z"/>
<path class="st5" d="M229.69,449.7c-5.88,0.82-11.58,3.1-16.54,6.85C219.31,455.7,224.96,453.28,229.69,449.7z"/>
<path class="st5" d="M233.57,486.57c13-3.16,23.21-13.44,26.28-26.47c-6.15,1.49-11.98,4.64-16.78,9.44
	C238.2,474.4,235.04,480.33,233.57,486.57z"/>
<path class="st5" d="M233.57,486.57c13-3.16,23.21-13.44,26.28-26.47c-6.15,1.49-11.98,4.64-16.78,9.44
	C238.2,474.4,235.04,480.33,233.57,486.57z"/>
<path class="st5" d="M233.57,486.57c13-3.16,23.21-13.44,26.28-26.47c-6.15,1.49-11.98,4.64-16.78,9.44
	C238.2,474.4,235.04,480.33,233.57,486.57z"/>
<path class="st5" d="M259.62,382.86c-8.21,8.06-19.33,11.35-29.93,9.88c8.62,6.51,14.19,16.84,14.19,28.48c0,0.02,0,0.04,0,0.06
	c2.22-1.4,4.32-3.05,6.25-4.98C259.2,407.23,262.36,394.5,259.62,382.86z"/>
<path class="st6" d="M213.15,385.89c-1.3-0.99-2.56-2.06-3.75-3.25c-4.86-4.86-8.02-10.78-9.49-17.02
	c-0.08,0.08-0.16,0.15-0.24,0.23c-6.95,6.95-10.43,16.06-10.45,25.17c5.5-3.46,12-5.47,18.98-5.47
	C209.88,385.54,211.53,385.67,213.15,385.89z"/>
<path class="st5" d="M213.15,385.89c6.15,0.85,11.81,3.27,16.54,6.85c10.6,1.47,21.73-1.82,29.93-9.88
	c-0.02-0.08-0.03-0.16-0.05-0.24c-13.04-3.06-23.32-13.27-26.47-26.28c-11.53-2.71-24.13,0.38-33.18,9.27
	c1.47,6.24,4.63,12.16,9.49,17.02C210.59,383.83,211.85,384.91,213.15,385.89z"/>
<path class="st7" d="M213.15,385.89c6.15,0.85,11.81,3.27,16.54,6.85c10.6,1.47,21.73-1.82,29.93-9.88
	c-0.02-0.08-0.03-0.16-0.05-0.24c-13.04-3.06-23.32-13.27-26.47-26.28c-11.53-2.71-24.13,0.38-33.18,9.27
	c1.47,6.24,4.63,12.16,9.49,17.02C210.59,383.83,211.85,384.91,213.15,385.89z"/>
<path class="st5" d="M206.36,421.56c5.45-3.38,11.88-5.33,18.76-5.33c6.79,0,13.14,1.9,18.54,5.19c0.07-0.04,0.14-0.09,0.21-0.13
	c0-0.02,0-0.04,0-0.06c0-11.63-5.57-21.96-14.19-28.48c-5.88-0.82-11.58-3.1-16.54-6.85c-1.62-0.22-3.27-0.35-4.95-0.35
	c-6.98,0-13.48,2.01-18.98,5.47c-0.02,9.15,3.47,18.31,10.45,25.29C201.73,418.36,203.98,420.11,206.36,421.56z"/>
<path class="st7" d="M206.36,421.56c5.45-3.38,11.88-5.33,18.76-5.33c6.79,0,13.14,1.9,18.54,5.19c0.07-0.04,0.14-0.09,0.21-0.13
	c0-0.02,0-0.04,0-0.06c0-11.63-5.57-21.96-14.19-28.48c-5.88-0.82-11.58-3.1-16.54-6.85c-1.62-0.22-3.27-0.35-4.95-0.35
	c-6.98,0-13.48,2.01-18.98,5.47c-0.02,9.15,3.47,18.31,10.45,25.29C201.73,418.36,203.98,420.11,206.36,421.56z"/>
<path class="st5" d="M229.69,392.74c-4.73-3.58-10.39-6-16.54-6.85C218.11,389.64,223.81,391.93,229.69,392.74z"/>
<path class="st5" d="M229.69,392.74c-4.73-3.58-10.39-6-16.54-6.85C218.11,389.64,223.81,391.93,229.69,392.74z"/>
<path class="st5" d="M229.69,392.74c-4.73-3.58-10.39-6-16.54-6.85C218.11,389.64,223.81,391.93,229.69,392.74z"/>
<path class="st5" d="M233.09,356.35c3.16,13,13.44,23.21,26.47,26.28c-1.49-6.15-4.64-11.98-9.44-16.78
	C245.26,360.98,239.34,357.82,233.09,356.35z"/>
<path class="st5" d="M233.09,356.35c3.16,13,13.44,23.21,26.47,26.28c-1.49-6.15-4.64-11.98-9.44-16.78
	C245.26,360.98,239.34,357.82,233.09,356.35z"/>
<path class="st5" d="M233.09,356.35c3.16,13,13.44,23.21,26.47,26.28c-1.49-6.15-4.64-11.98-9.44-16.78
	C245.26,360.98,239.34,357.82,233.09,356.35z"/>
<path class="st5" d="M206.36,421.56c11.43,6.96,25.91,6.91,37.3-0.14c-5.4-3.29-11.75-5.19-18.54-5.19
	C218.24,416.23,211.81,418.18,206.36,421.56z"/>
<path class="st5" d="M206.36,421.56c11.43,6.96,25.91,6.91,37.3-0.14c-5.4-3.29-11.75-5.19-18.54-5.19
	C218.24,416.23,211.81,418.18,206.36,421.56z"/>
<path class="st5" d="M206.36,421.56c11.43,6.96,25.91,6.91,37.3-0.14c-5.4-3.29-11.75-5.19-18.54-5.19
	C218.24,416.23,211.81,418.18,206.36,421.56z"/>
<path class="st6" d="M264.33,338.88c0,8.73,3.33,17.46,9.99,24.12C274.32,353.58,270.51,345.05,264.33,338.88z"/>
<path class="st1" d="M285.92,355.86c0,0-6.59-14.08-21.58-18.17l0-0.01c0,0,0,0,0,0.01c-0.01,0-0.01,0-0.02-0.01l0.01,0.02
	c-8.12,13.24-3.27,28.02-3.27,28.02c2.89-2.73,13.16-2.74,13.26-2.74l-7.86-19.96l7.94,19.92
	C274.38,362.96,281.92,355.86,285.92,355.86z"/>
<path class="st1" d="M335.8,366.15c0,0,5.3-14.62-2.41-28.1l0-0.01c0,0,0,0-0.01,0c0-0.01-0.01-0.01-0.01-0.02l-0.01,0.02
	c-15.11,3.62-22.13,17.5-22.13,17.5c3.98,0.11,11.25,7.37,11.31,7.44l8.55-19.67l-8.47,19.7
	C322.63,363.01,332.98,363.31,335.8,366.15z"/>
<path class="st1" d="M363.8,408.7c0,0,14.08-6.59,18.17-21.58l0.01,0c0,0,0,0-0.01,0c0-0.01,0-0.01,0.01-0.02l-0.02,0.01
	c-13.24-8.12-28.02-3.27-28.02-3.27c2.73,2.89,2.74,13.16,2.74,13.26l19.96-7.86l-19.92,7.94
	C356.71,397.16,363.81,404.69,363.8,408.7z"/>
<path class="st1" d="M353.51,458.58c0,0,14.62,5.3,28.1-2.41l0.01,0c0,0,0,0,0-0.01c0.01,0,0.01-0.01,0.02-0.01l-0.02-0.01
	c-3.62-15.11-17.5-22.13-17.5-22.13c-0.11,3.98-7.37,11.25-7.44,11.31l19.67,8.55l-19.7-8.47
	C356.65,445.41,356.35,455.76,353.51,458.58z"/>
<path class="st1" d="M310.97,486.58c0,0,6.59,14.08,21.58,18.17l0,0.01c0,0,0,0,0-0.01c0.01,0,0.01,0,0.02,0.01l-0.01-0.02
	c8.12-13.24,3.27-28.02,3.27-28.02c-2.89,2.73-13.16,2.74-13.26,2.74l7.86,19.96l-7.94-19.92
	C322.5,479.48,314.97,486.59,310.97,486.58z"/>
<path class="st1" d="M261.09,476.29c0,0-5.3,14.62,2.41,28.1l0,0.01c0,0,0,0,0.01,0c0,0.01,0.01,0.01,0.01,0.02l0.01-0.02
	c15.11-3.62,22.13-17.5,22.13-17.5c-3.98-0.11-11.25-7.37-11.31-7.44l-8.55,19.67l8.47-19.7
	C274.26,479.43,263.91,479.13,261.09,476.29z"/>
<path class="st1" d="M233.09,433.75c0,0-14.08,6.59-18.17,21.58l-0.01,0c0,0,0,0,0.01,0c0,0.01,0,0.01-0.01,0.02l0.02-0.01
	c13.24,8.12,28.02,3.27,28.02,3.27c-2.73-2.89-2.74-13.16-2.74-13.26l-19.96,7.86l19.92-7.94
	C240.18,445.28,233.08,437.75,233.09,433.75z"/>
<path class="st1" d="M243.37,383.86c0,0-14.62-5.3-28.1,2.41l-0.01,0c0,0,0,0,0,0.01c-0.01,0-0.01,0.01-0.02,0.01l0.02,0.01
	c3.62,15.11,17.5,22.13,17.5,22.13c0.11-3.98,7.37-11.25,7.44-11.31l-19.67-8.55l19.7,8.47
	C240.23,397.04,240.54,386.69,243.37,383.86z"/>
<path class="st6" d="M250.21,421.22c-6.66-6.66-9.99-15.39-9.99-24.12c-6.17,6.17-9.99,14.7-9.99,24.12
	c0,9.42,3.82,17.95,9.99,24.12C240.22,436.61,243.55,427.88,250.21,421.22z"/>
<path class="st6" d="M274.32,362.99c-8.73,0-17.46,3.33-24.12,9.99c-6.66,6.66-9.99,15.39-9.99,24.12
	c6.17-6.17,14.7-9.99,24.12-9.99C264.33,377.69,268.15,369.17,274.32,362.99z"/>
<path class="st6" d="M250.21,421.22c6.66-6.66,15.39-9.99,24.12-9.99c-6.17-6.17-9.99-14.7-9.99-24.12
	c-9.42,0-17.95,3.82-24.12,9.99C240.22,405.83,243.55,414.56,250.21,421.22z"/>
<path class="st7" d="M250.21,421.22c6.66-6.66,15.39-9.99,24.12-9.99c-6.17-6.17-9.99-14.7-9.99-24.12
	c-9.42,0-17.95,3.82-24.12,9.99C240.22,405.83,243.55,414.56,250.21,421.22z"/>
<path class="st6" d="M322.56,362.99c-6.17-6.17-14.7-9.99-24.12-9.99c-9.42,0-17.95,3.82-24.12,9.99c8.73,0,17.46,3.33,24.12,9.99
	C305.1,366.32,313.83,362.99,322.56,362.99z"/>
<path class="st6" d="M288.45,397.1c0-8.73,3.33-17.46,9.99-24.12c-6.66-6.66-15.39-9.99-24.12-9.99c-6.17,6.17-9.99,14.7-9.99,24.12
	C273.75,387.11,282.28,390.93,288.45,397.1z"/>
<path class="st7" d="M288.45,397.1c0-8.73,3.33-17.46,9.99-24.12c-6.66-6.66-15.39-9.99-24.12-9.99c-6.17,6.17-9.99,14.7-9.99,24.12
	C273.75,387.11,282.28,390.93,288.45,397.1z"/>
<path class="st6" d="M288.45,397.1c-6.17-6.17-14.7-9.99-24.12-9.99c0,9.42,3.82,17.95,9.99,24.12c8.73,0,17.46,3.33,24.12,9.99
	C291.78,414.56,288.45,405.83,288.45,397.1z"/>
<path class="st6" d="M288.45,397.1c-6.17-6.17-14.7-9.99-24.12-9.99c0,9.42,3.82,17.95,9.99,24.12c8.73,0,17.46,3.33,24.12,9.99
	C291.78,414.56,288.45,405.83,288.45,397.1z"/>
<path class="st6" d="M288.45,397.1c-6.17-6.17-14.7-9.99-24.12-9.99c0,9.42,3.82,17.95,9.99,24.12c8.73,0,17.46,3.33,24.12,9.99
	C291.78,414.56,288.45,405.83,288.45,397.1z"/>
<path class="st6" d="M356.67,397.1c0-8.73-3.33-17.46-9.99-24.12c-6.66-6.66-15.39-9.99-24.12-9.99c6.17,6.17,9.99,14.7,9.99,24.12
	C341.97,387.11,350.5,390.93,356.67,397.1z"/>
<path class="st6" d="M308.43,397.1c6.17-6.17,14.7-9.99,24.12-9.99c0-9.42-3.82-17.95-9.99-24.12c-8.73,0-17.46,3.33-24.12,9.99
	C305.1,379.64,308.43,388.37,308.43,397.1z"/>
<path class="st7" d="M308.43,397.1c6.17-6.17,14.7-9.99,24.12-9.99c0-9.42-3.82-17.95-9.99-24.12c-8.73,0-17.46,3.33-24.12,9.99
	C305.1,379.64,308.43,388.37,308.43,397.1z"/>
<path class="st6" d="M308.43,397.1c0-8.73-3.33-17.46-9.99-24.12c-6.66,6.66-9.99,15.39-9.99,24.12c6.17,6.17,9.99,14.7,9.99,24.12
	C298.44,411.8,302.26,403.28,308.43,397.1z"/>
<path class="st6" d="M308.43,397.1c0-8.73-3.33-17.46-9.99-24.12c-6.66,6.66-9.99,15.39-9.99,24.12c6.17,6.17,9.99,14.7,9.99,24.12
	C298.44,411.8,302.26,403.28,308.43,397.1z"/>
<path class="st6" d="M308.43,397.1c0-8.73-3.33-17.46-9.99-24.12c-6.66,6.66-9.99,15.39-9.99,24.12c6.17,6.17,9.99,14.7,9.99,24.12
	C298.44,411.8,302.26,403.28,308.43,397.1z"/>
<path class="st6" d="M288.45,397.1c0,8.73,3.33,17.46,9.99,24.12C298.44,411.8,294.63,403.28,288.45,397.1z"/>
<path class="st6" d="M288.45,397.1c0,8.73,3.33,17.46,9.99,24.12C298.44,411.8,294.63,403.28,288.45,397.1z"/>
<path class="st6" d="M288.45,397.1c0,8.73,3.33,17.46,9.99,24.12C298.44,411.8,294.63,403.28,288.45,397.1z"/>
<path class="st6" d="M288.45,397.1c0,8.73,3.33,17.46,9.99,24.12C298.44,411.8,294.63,403.28,288.45,397.1z"/>
<path class="st6" d="M356.67,397.1c0,8.73-3.33,17.46-9.99,24.12c6.66,6.66,9.99,15.39,9.99,24.12c6.17-6.17,9.99-14.7,9.99-24.12
	C366.66,411.8,362.84,403.28,356.67,397.1z"/>
<path class="st6" d="M322.56,411.23c8.73,0,17.46,3.33,24.12,9.99c6.66-6.66,9.99-15.39,9.99-24.12c-6.17-6.17-14.7-9.99-24.12-9.99
	C332.55,396.53,328.73,405.06,322.56,411.23z"/>
<path class="st7" d="M322.56,411.23c8.73,0,17.46,3.33,24.12,9.99c6.66-6.66,9.99-15.39,9.99-24.12c-6.17-6.17-14.7-9.99-24.12-9.99
	C332.55,396.53,328.73,405.06,322.56,411.23z"/>
<path class="st6" d="M322.56,411.23c6.17-6.17,9.99-14.7,9.99-24.12c-9.42,0-17.95,3.82-24.12,9.99c0,8.73-3.33,17.46-9.99,24.12
	C305.1,414.56,313.83,411.23,322.56,411.23z"/>
<path class="st6" d="M322.56,411.23c6.17-6.17,9.99-14.7,9.99-24.12c-9.42,0-17.95,3.82-24.12,9.99c0,8.73-3.33,17.46-9.99,24.12
	C305.1,414.56,313.83,411.23,322.56,411.23z"/>
<path class="st6" d="M322.56,411.23c6.17-6.17,9.99-14.7,9.99-24.12c-9.42,0-17.95,3.82-24.12,9.99c0,8.73-3.33,17.46-9.99,24.12
	C305.1,414.56,313.83,411.23,322.56,411.23z"/>
<path class="st6" d="M308.43,397.1c-6.17,6.17-9.99,14.7-9.99,24.12C305.1,414.56,308.43,405.83,308.43,397.1z"/>
<path class="st6" d="M308.43,397.1c-6.17,6.17-9.99,14.7-9.99,24.12C305.1,414.56,308.43,405.83,308.43,397.1z"/>
<path class="st6" d="M308.43,397.1c-6.17,6.17-9.99,14.7-9.99,24.12C305.1,414.56,308.43,405.83,308.43,397.1z"/>
<path class="st6" d="M308.43,397.1c-6.17,6.17-9.99,14.7-9.99,24.12C305.1,414.56,308.43,405.83,308.43,397.1z"/>
<path class="st6" d="M322.56,479.45c8.73,0,17.46-3.33,24.12-9.99c6.66-6.66,9.99-15.39,9.99-24.12c-6.17,6.17-14.7,9.99-24.12,9.99
	C332.55,464.75,328.73,473.27,322.56,479.45z"/>
<path class="st6" d="M322.56,431.21c6.17,6.17,9.99,14.7,9.99,24.12c9.42,0,17.95-3.82,24.12-9.99c0-8.73-3.33-17.46-9.99-24.12
	C340.02,427.88,331.29,431.21,322.56,431.21z"/>
<path class="st7" d="M322.56,431.21c6.17,6.17,9.99,14.7,9.99,24.12c9.42,0,17.95-3.82,24.12-9.99c0-8.73-3.33-17.46-9.99-24.12
	C340.02,427.88,331.29,431.21,322.56,431.21z"/>
<path class="st6" d="M298.44,421.22c9.42,0,17.95,3.82,24.12,9.99c8.73,0,17.46-3.33,24.12-9.99c-6.66-6.66-15.39-9.99-24.12-9.99
	C316.39,417.4,307.86,421.22,298.44,421.22z"/>
<path class="st6" d="M298.44,421.22c9.42,0,17.95,3.82,24.12,9.99c8.73,0,17.46-3.33,24.12-9.99c-6.66-6.66-15.39-9.99-24.12-9.99
	C316.39,417.4,307.86,421.22,298.44,421.22z"/>
<path class="st6" d="M298.44,421.22c9.42,0,17.95,3.82,24.12,9.99c8.73,0,17.46-3.33,24.12-9.99c-6.66-6.66-15.39-9.99-24.12-9.99
	C316.39,417.4,307.86,421.22,298.44,421.22z"/>
<path class="st6" d="M322.56,411.23c-8.73,0-17.46,3.33-24.12,9.99C307.86,421.22,316.39,417.4,322.56,411.23z"/>
<path class="st6" d="M322.56,411.23c-8.73,0-17.46,3.33-24.12,9.99C307.86,421.22,316.39,417.4,322.56,411.23z"/>
<path class="st6" d="M322.56,411.23c-8.73,0-17.46,3.33-24.12,9.99C307.86,421.22,316.39,417.4,322.56,411.23z"/>
<path class="st6" d="M322.56,411.23c-8.73,0-17.46,3.33-24.12,9.99C307.86,421.22,316.39,417.4,322.56,411.23z"/>
<path class="st6" d="M274.32,479.45c6.17,6.17,14.7,9.99,24.12,9.99c9.42,0,17.95-3.82,24.12-9.99c-8.73,0-17.46-3.33-24.12-9.99
	C291.78,476.12,283.05,479.45,274.32,479.45z"/>
<path class="st6" d="M308.43,445.34c0,8.73-3.33,17.46-9.99,24.12c6.66,6.66,15.39,9.99,24.12,9.99c6.17-6.17,9.99-14.7,9.99-24.12
	C323.13,455.33,314.61,451.51,308.43,445.34z"/>
<path class="st7" d="M308.43,445.34c0,8.73-3.33,17.46-9.99,24.12c6.66,6.66,15.39,9.99,24.12,9.99c6.17-6.17,9.99-14.7,9.99-24.12
	C323.13,455.33,314.61,451.51,308.43,445.34z"/>
<path class="st6" d="M308.43,445.34c6.17,6.17,14.7,9.99,24.12,9.99c0-9.42-3.82-17.95-9.99-24.12c-8.73,0-17.46-3.33-24.12-9.99
	C305.1,427.88,308.43,436.61,308.43,445.34z"/>
<path class="st6" d="M308.43,445.34c6.17,6.17,14.7,9.99,24.12,9.99c0-9.42-3.82-17.95-9.99-24.12c-8.73,0-17.46-3.33-24.12-9.99
	C305.1,427.88,308.43,436.61,308.43,445.34z"/>
<path class="st6" d="M308.43,445.34c6.17,6.17,14.7,9.99,24.12,9.99c0-9.42-3.82-17.95-9.99-24.12c-8.73,0-17.46-3.33-24.12-9.99
	C305.1,427.88,308.43,436.61,308.43,445.34z"/>
<path class="st6" d="M322.56,431.21c-6.17-6.17-14.7-9.99-24.12-9.99C305.1,427.88,313.83,431.21,322.56,431.21z"/>
<path class="st6" d="M322.56,431.21c-6.17-6.17-14.7-9.99-24.12-9.99C305.1,427.88,313.83,431.21,322.56,431.21z"/>
<path class="st6" d="M322.56,431.21c-6.17-6.17-14.7-9.99-24.12-9.99C305.1,427.88,313.83,431.21,322.56,431.21z"/>
<path class="st6" d="M322.56,431.21c-6.17-6.17-14.7-9.99-24.12-9.99C305.1,427.88,313.83,431.21,322.56,431.21z"/>
<path class="st6" d="M240.22,445.34c0,8.73,3.33,17.46,9.99,24.12c6.66,6.66,15.39,9.99,24.12,9.99c-6.17-6.17-9.99-14.7-9.99-24.12
	C254.92,455.33,246.39,451.51,240.22,445.34z"/>
<path class="st6" d="M274.32,431.21c-8.73,0-17.46-3.33-24.12-9.99c-6.66,6.66-9.99,15.39-9.99,24.12
	c6.17,6.17,14.7,9.99,24.12,9.99C264.33,445.91,268.15,437.38,274.32,431.21z"/>
<path class="st7" d="M274.32,431.21c-8.73,0-17.46-3.33-24.12-9.99c-6.66,6.66-9.99,15.39-9.99,24.12
	c6.17,6.17,14.7,9.99,24.12,9.99C264.33,445.91,268.15,437.38,274.32,431.21z"/>
<path class="st6" d="M274.32,411.23c-8.73,0-17.46,3.33-24.12,9.99c6.66,6.66,15.39,9.99,24.12,9.99c6.17-6.17,14.7-9.99,24.12-9.99
	C289.02,421.22,280.5,417.4,274.32,411.23z"/>
<path class="st6" d="M274.32,411.23c-8.73,0-17.46,3.33-24.12,9.99c6.66,6.66,15.39,9.99,24.12,9.99c6.17-6.17,14.7-9.99,24.12-9.99
	C289.02,421.22,280.5,417.4,274.32,411.23z"/>
<path class="st6" d="M274.32,411.23c-8.73,0-17.46,3.33-24.12,9.99c6.66,6.66,15.39,9.99,24.12,9.99c6.17-6.17,14.7-9.99,24.12-9.99
	C289.02,421.22,280.5,417.4,274.32,411.23z"/>
<path class="st6" d="M274.32,411.23c6.17,6.17,14.7,9.99,24.12,9.99C291.78,414.56,283.05,411.23,274.32,411.23z"/>
<path class="st6" d="M274.32,411.23c6.17,6.17,14.7,9.99,24.12,9.99C291.78,414.56,283.05,411.23,274.32,411.23z"/>
<path class="st6" d="M274.32,411.23c6.17,6.17,14.7,9.99,24.12,9.99C291.78,414.56,283.05,411.23,274.32,411.23z"/>
<path class="st6" d="M274.32,411.23c6.17,6.17,14.7,9.99,24.12,9.99C291.78,414.56,283.05,411.23,274.32,411.23z"/>
<path class="st6" d="M288.45,445.34c-6.17,6.17-14.7,9.99-24.12,9.99c0,9.42,3.82,17.95,9.99,24.12c8.73,0,17.46-3.33,24.12-9.99
	C291.78,462.8,288.45,454.07,288.45,445.34z"/>
<path class="st7" d="M288.45,445.34c-6.17,6.17-14.7,9.99-24.12,9.99c0,9.42,3.82,17.95,9.99,24.12c8.73,0,17.46-3.33,24.12-9.99
	C291.78,462.8,288.45,454.07,288.45,445.34z"/>
<path class="st6" d="M274.32,431.21c-6.17,6.17-9.99,14.7-9.99,24.12c9.42,0,17.95-3.82,24.12-9.99c0-8.73,3.33-17.46,9.99-24.12
	C291.78,427.88,283.05,431.21,274.32,431.21z"/>
<path class="st6" d="M274.32,431.21c-6.17,6.17-9.99,14.7-9.99,24.12c9.42,0,17.95-3.82,24.12-9.99c0-8.73,3.33-17.46,9.99-24.12
	C291.78,427.88,283.05,431.21,274.32,431.21z"/>
<path class="st6" d="M274.32,431.21c-6.17,6.17-9.99,14.7-9.99,24.12c9.42,0,17.95-3.82,24.12-9.99c0-8.73,3.33-17.46,9.99-24.12
	C291.78,427.88,283.05,431.21,274.32,431.21z"/>
<path class="st6" d="M274.32,431.21c8.73,0,17.46-3.33,24.12-9.99C289.02,421.22,280.5,425.04,274.32,431.21z"/>
<path class="st6" d="M274.32,431.21c8.73,0,17.46-3.33,24.12-9.99C289.02,421.22,280.5,425.04,274.32,431.21z"/>
<path class="st6" d="M274.32,431.21c8.73,0,17.46-3.33,24.12-9.99C289.02,421.22,280.5,425.04,274.32,431.21z"/>
<path class="st6" d="M274.32,431.21c8.73,0,17.46-3.33,24.12-9.99C289.02,421.22,280.5,425.04,274.32,431.21z"/>
<path class="st6" d="M288.45,445.34c0,8.73,3.33,17.46,9.99,24.12c6.66-6.66,9.99-15.39,9.99-24.12c-6.17-6.17-9.99-14.7-9.99-24.12
	C298.44,430.64,294.63,439.17,288.45,445.34z"/>
<path class="st6" d="M288.45,445.34c0,8.73,3.33,17.46,9.99,24.12c6.66-6.66,9.99-15.39,9.99-24.12c-6.17-6.17-9.99-14.7-9.99-24.12
	C298.44,430.64,294.63,439.17,288.45,445.34z"/>
<path class="st6" d="M288.45,445.34c0,8.73,3.33,17.46,9.99,24.12c6.66-6.66,9.99-15.39,9.99-24.12c-6.17-6.17-9.99-14.7-9.99-24.12
	C298.44,430.64,294.63,439.17,288.45,445.34z"/>
<path class="st6" d="M288.45,445.34c6.17-6.17,9.99-14.7,9.99-24.12C291.78,427.88,288.45,436.61,288.45,445.34z"/>
<path class="st6" d="M288.45,445.34c6.17-6.17,9.99-14.7,9.99-24.12C291.78,427.88,288.45,436.61,288.45,445.34z"/>
<path class="st6" d="M288.45,445.34c6.17-6.17,9.99-14.7,9.99-24.12C291.78,427.88,288.45,436.61,288.45,445.34z"/>
<path class="st6" d="M288.45,445.34c6.17-6.17,9.99-14.7,9.99-24.12C291.78,427.88,288.45,436.61,288.45,445.34z"/>
<path class="st6" d="M308.43,445.34c0-8.73-3.33-17.46-9.99-24.12C298.44,430.64,302.26,439.17,308.43,445.34z"/>
<path class="st6" d="M308.43,445.34c0-8.73-3.33-17.46-9.99-24.12C298.44,430.64,302.26,439.17,308.43,445.34z"/>
<path class="st6" d="M308.43,445.34c0-8.73-3.33-17.46-9.99-24.12C298.44,430.64,302.26,439.17,308.43,445.34z"/>
<path class="st6" d="M308.43,445.34c0-8.73-3.33-17.46-9.99-24.12C298.44,430.64,302.26,439.17,308.43,445.34z"/>
<path class="st8" d="M285.77,355.72c0.1,0.1,0.19,0.2,0.28,0.3c-4.51-5.7-17.72-7.57-17.72-7.57s-7.71,10.06-7.38,17.27
	c0.08-0.04,5.98-2.77,13.36-2.72l0.32-0.13C279.82,357.83,285.77,355.72,285.77,355.72z"/>
<path class="st8" d="M335.8,365.94c0,0.14-0.01,0.27-0.01,0.41c0.84-7.22-7.18-17.88-7.18-17.88s-12.57,1.67-17.43,7
	c0.08,0.03,6.18,2.27,11.37,7.52l0.31,0.13C330.1,363.23,335.8,365.94,335.8,365.94z"/>
<path class="st8" d="M363.94,408.55c-0.1,0.1-0.2,0.19-0.3,0.28c5.7-4.51,7.57-17.72,7.57-17.72s-10.06-7.71-17.27-7.38
	c0.04,0.08,2.77,5.98,2.72,13.36l0.13,0.32C361.84,402.6,363.94,408.55,363.94,408.55z"/>
<path class="st8" d="M353.72,458.58c-0.14,0-0.27-0.01-0.41-0.01c7.22,0.84,17.88-7.18,17.88-7.18s-1.67-12.57-7-17.43
	c-0.03,0.08-2.27,6.18-7.52,11.37l-0.13,0.31C356.43,452.88,353.72,458.58,353.72,458.58z"/>
<path class="st8" d="M311.12,486.72c-0.1-0.1-0.19-0.2-0.28-0.3c4.51,5.7,17.72,7.57,17.72,7.57s7.71-10.06,7.38-17.27
	c-0.08,0.04-5.98,2.77-13.36,2.72l-0.32,0.13C317.06,484.61,311.12,486.72,311.12,486.72z"/>
<path class="st8" d="M261.09,476.5c0-0.14,0.01-0.27,0.01-0.41c-0.84,7.22,7.18,17.88,7.18,17.88s12.57-1.67,17.43-7
	c-0.08-0.03-6.18-2.27-11.37-7.52l-0.31-0.13C266.78,479.21,261.09,476.5,261.09,476.5z"/>
<path class="st8" d="M232.94,433.89c0.1-0.1,0.2-0.19,0.3-0.28c-5.7,4.51-7.57,17.72-7.57,17.72s10.06,7.71,17.27,7.38
	c-0.04-0.08-2.77-5.98-2.72-13.36l-0.13-0.32C235.05,439.84,232.94,433.89,232.94,433.89z"/>
<path class="st8" d="M243.16,383.87c0.14,0,0.27,0.01,0.41,0.01c-7.22-0.84-17.88,7.18-17.88,7.18s1.67,12.57,7,17.43
	c0.03-0.08,2.27-6.18,7.52-11.37l0.13-0.31C240.45,389.56,243.16,383.87,243.16,383.87z"/>
<path class="st9" d="M355.06,321.04c0.66-1.81,1.15-3.7,1.44-5.61c1.38-9.05-1.21-16-2.65-25.46c-8.08,5.37-15.56,7.99-21.17,15.23
	c-1.18,1.53-2.22,3.18-3.08,4.91c-0.13,0.26-0.61,1.87-0.88,1.98c0.27-0.11,0.95-0.04,1.74,0.03c1.14,0.09,2.47,0.24,2.89,0.31
	c2.45,0.54,5.04,1.14,6.94,1.82c0.99,0.35,1.78,0.66,2.24,0.84c0.45,0.21,1.22,0.57,2.16,1.04c1.8,0.92,4.02,2.37,6.1,3.78
	c0.35,0.26,1.36,1.13,2.22,1.89c0.59,0.53,1.11,0.97,1.22,1.24C354.12,322.78,354.96,321.32,355.06,321.04z"/>
<path class="st9" d="M409.31,390.42c1.75-0.81,3.43-1.8,4.98-2.95c7.38-5.43,10.46-12.17,16.13-19.88
	c-9.52-1.92-16.65-5.35-25.74-4.2c-1.92,0.24-3.81,0.68-5.64,1.29c-0.28,0.09-1.76,0.89-2.02,0.78c0.27,0.12,0.7,0.65,1.21,1.25
	c0.74,0.87,1.58,1.91,1.83,2.26c1.35,2.12,2.75,4.37,3.62,6.19c0.45,0.95,0.79,1.73,0.99,2.18c0.17,0.47,0.46,1.27,0.79,2.26
	c0.63,1.92,1.16,4.52,1.64,6.98c0.06,0.43,0.17,1.76,0.23,2.9c0.05,0.79,0.1,1.47-0.02,1.74
	C407.43,390.98,409.05,390.54,409.31,390.42z"/>
<path class="st9" d="M398.62,477.83c1.81,0.66,3.7,1.15,5.61,1.44c9.05,1.38,16-1.21,25.46-2.65c-5.37-8.08-7.99-15.56-15.23-21.17
	c-1.53-1.18-3.18-2.22-4.91-3.08c-0.26-0.13-1.87-0.61-1.98-0.88c0.11,0.27,0.04,0.95-0.03,1.74c-0.09,1.14-0.24,2.47-0.31,2.89
	c-0.54,2.45-1.14,5.04-1.82,6.94c-0.35,0.99-0.66,1.78-0.84,2.24c-0.21,0.45-0.57,1.22-1.04,2.16c-0.92,1.8-2.37,4.02-3.78,6.1
	c-0.26,0.35-1.13,1.36-1.89,2.22c-0.53,0.59-0.97,1.11-1.24,1.22C396.89,476.9,398.35,477.73,398.62,477.83z"/>
<path class="st9" d="M329.25,532.09c0.81,1.75,1.8,3.43,2.95,4.98c5.43,7.38,12.17,10.46,19.88,16.13
	c1.92-9.52,5.35-16.65,4.2-25.74c-0.24-1.92-0.68-3.81-1.29-5.64c-0.09-0.28-0.89-1.76-0.78-2.02c-0.12,0.27-0.65,0.7-1.25,1.21
	c-0.87,0.74-1.91,1.58-2.26,1.83c-2.12,1.35-4.37,2.75-6.19,3.62c-0.95,0.45-1.73,0.79-2.18,0.99c-0.47,0.17-1.27,0.46-2.26,0.79
	c-1.92,0.63-4.52,1.16-6.98,1.64c-0.43,0.06-1.76,0.17-2.9,0.23c-0.79,0.04-1.47,0.1-1.74-0.02
	C328.68,530.2,329.12,531.82,329.25,532.09z"/>
<path class="st9" d="M241.83,521.4c-0.66,1.81-1.15,3.7-1.44,5.61c-1.38,9.05,1.21,16,2.65,25.46c8.08-5.37,15.56-7.99,21.17-15.23
	c1.18-1.53,2.22-3.18,3.08-4.91c0.13-0.26,0.61-1.87,0.88-1.98c-0.27,0.11-0.95,0.04-1.74-0.03c-1.14-0.09-2.47-0.24-2.89-0.31
	c-2.45-0.54-5.04-1.14-6.94-1.82c-0.99-0.35-1.78-0.66-2.24-0.84c-0.45-0.21-1.22-0.57-2.16-1.04c-1.8-0.92-4.02-2.37-6.1-3.78
	c-0.35-0.26-1.36-1.13-2.22-1.89c-0.59-0.53-1.11-0.97-1.22-1.24C242.76,519.67,241.93,521.12,241.83,521.4z"/>
<path class="st9" d="M187.57,452.02c-1.75,0.81-3.43,1.8-4.98,2.95c-7.38,5.43-10.46,12.17-16.13,19.88
	c9.52,1.92,16.65,5.35,25.74,4.2c1.92-0.24,3.81-0.68,5.64-1.29c0.28-0.09,1.76-0.89,2.02-0.78c-0.27-0.12-0.7-0.65-1.21-1.25
	c-0.74-0.87-1.58-1.91-1.83-2.26c-1.35-2.12-2.75-4.37-3.62-6.19c-0.45-0.95-0.79-1.73-0.99-2.18c-0.17-0.47-0.46-1.27-0.79-2.26
	c-0.63-1.92-1.16-4.52-1.64-6.98c-0.06-0.43-0.17-1.76-0.23-2.9c-0.05-0.79-0.1-1.47,0.02-1.74
	C189.46,451.46,187.84,451.9,187.57,452.02z"/>
<path class="st9" d="M198.27,364.61c-1.81-0.66-3.7-1.15-5.61-1.44c-9.05-1.38-16,1.21-25.46,2.65c5.37,8.08,7.99,15.56,15.23,21.17
	c1.53,1.18,3.18,2.22,4.91,3.08c0.26,0.13,1.87,0.61,1.98,0.88c-0.11-0.27-0.04-0.95,0.03-1.74c0.09-1.14,0.24-2.47,0.31-2.89
	c0.54-2.45,1.14-5.04,1.82-6.94c0.35-0.99,0.66-1.78,0.84-2.24c0.21-0.45,0.57-1.22,1.04-2.16c0.92-1.8,2.37-4.02,3.78-6.1
	c0.26-0.35,1.13-1.36,1.89-2.22c0.53-0.59,0.97-1.11,1.24-1.22C200,365.54,198.54,364.71,198.27,364.61z"/>
<path class="st9" d="M267.64,310.35c-0.81-1.75-1.8-3.43-2.95-4.98c-5.43-7.38-12.17-10.46-19.88-16.13
	c-1.92,9.52-5.35,16.65-4.2,25.74c0.24,1.92,0.68,3.81,1.29,5.64c0.09,0.28,0.89,1.76,0.78,2.02c0.12-0.27,0.65-0.7,1.25-1.21
	c0.87-0.74,1.91-1.58,2.26-1.83c2.12-1.35,4.37-2.75,6.19-3.62c0.95-0.45,1.73-0.79,2.18-0.99c0.47-0.17,1.27-0.46,2.26-0.79
	c1.92-0.63,4.52-1.16,6.98-1.64c0.43-0.06,1.76-0.17,2.9-0.23c0.79-0.05,1.47-0.1,1.74,0.02
	C268.2,312.24,267.76,310.62,267.64,310.35z"/>
<path class="st9" d="M285.61,355.55c0,0-1.22-9.99,12.84-26.51c0,0,11.79,12.13,12.79,26.51
	C311.24,355.55,301.05,350.61,285.61,355.55z"/>
<path class="st9" d="M335.81,365.71c0,0,6.2-7.93,27.82-9.67c0,0-0.24,16.92-9.7,27.79C353.93,383.83,350.22,373.14,335.81,365.71z"
	/>
<path class="st9" d="M364.12,408.39c0,0,9.99-1.22,26.51,12.84c0,0-12.13,11.79-26.51,12.79
	C364.12,434.01,369.06,423.83,364.12,408.39z"/>
<path class="st9" d="M353.96,458.58c0,0,7.93,6.2,9.67,27.82c0,0-16.92-0.24-27.79-9.7C335.83,476.71,346.53,473,353.96,458.58z"/>
<path class="st9" d="M311.28,486.89c0,0,1.22,9.99-12.84,26.51c0,0-11.79-12.13-12.79-26.51
	C285.65,486.89,295.83,491.84,311.28,486.89z"/>
<path class="st9" d="M261.08,476.74c0,0-6.2,7.93-27.82,9.67c0,0,0.24-16.92,9.7-27.79C242.96,458.61,246.66,469.31,261.08,476.74z"
	/>
<path class="st9" d="M232.77,434.06c0,0-9.99,1.22-26.51-12.84c0,0,12.13-11.79,26.51-12.79
	C232.77,408.43,227.83,418.61,232.77,434.06z"/>
<path class="st9" d="M242.93,383.86c0,0-7.93-6.2-9.67-27.82c0,0,16.92,0.24,27.79,9.7C261.05,365.74,250.36,369.44,242.93,383.86z"
	/>
<path class="st10" d="M264.31,337.69"/>
</svg>
